#!OML:ASF F:\VICON\USERDATA\INSTALL\rory3\rory3.ASF
:FULLY-SPECIFIED
:DEGREES
624
root 0.220513 17.6557 2.76408 8.27032 -74.1546 -7.4328
lowerback 4.71649 -1.13039 -2.78046
upperback -2.2601 -1.80889 -1.8653
thorax -4.96431 -0.847432 -0.211342
lowerneck -22.7002 -7.30445 -11.7378
upperneck -15.9217 -7.43851 12.1168
head -0.434929 -3.46563 5.24144
rclavicle 9.11925e-015 -1.98785e-014
rhumerus -13.0008 -12.3431 -30.0085
rradius 119.859
rwrist 9.22635
rhand -36.914 11.8477
rfingers 7.12502
rthumb -9.99171 -17.8952
lclavicle 9.11925e-015 -1.98785e-014
lhumerus -13.8122 -7.23405 53.0191
lradius 111.955
lwrist 6.13574
lhand -25.6663 18.5858
lfingers 7.12502
lthumb 0.868004 48.5638
rfemur -4.71657 7.11264 9.78348
rtibia 33.3044
rfoot -14.7338 -2.98838
rtoes 3.92738
lfemur -9.1103 -2.35829 -9.90156
ltibia 24.7099
lfoot -11.3383 5.00341
ltoes -29.5373
625
root 0.233661 17.6717 2.83359 7.9325 -74.2992 -6.86118
lowerback 4.61786 -1.23444 -3.18749
upperback -2.20923 -1.96601 -1.80383
thorax -4.83786 -0.912997 0.090457
lowerneck -22.9525 -7.15295 -11.488
upperneck -16.1928 -7.29092 12.1066
head -0.510225 -3.4124 5.21506
rclavicle -4.39563e-014 7.15625e-015
rhumerus -16.1726 -11.0504 -32.5311
rradius 119.299
rwrist 8.76458
rhand -36.6741 11.7247
rfingers 7.12502
rthumb -9.76018 -18.0291
lclavicle -4.39563e-014 7.15625e-015
lhumerus -16.3106 -6.21317 55.1422
lradius 110.443
lwrist 6.00171
lhand -26.0815 18.8432
lfingers 7.12502
lthumb 0.466998 48.8225
rfemur -5.176 6.97223 9.2957
rtibia 33.5451
rfoot -14.278 -3.09925
rtoes 4.5926
lfemur -9.13548 -2.45156 -10.3812
ltibia 24.4242
lfoot -11.1993 5.25836
ltoes -29.5155
626
root 0.248304 17.6872 2.89337 6.36529 -74.6201 -5.01754
lowerback 4.63492 -1.11347 -3.96923
upperback -2.27253 -1.86035 -1.76567
thorax -4.89311 -0.834235 0.55834
lowerneck -22.8809 -7.3193 -11.9671
upperneck -16.4377 -7.3931 12.4713
head -0.544824 -3.44365 5.40849
rclavicle -1.74931e-014 0
rhumerus -19.522 -9.97842 -34.6681
rradius 118.3
rwrist 7.99782
rhand -36.0212 11.3561
rfingers 7.12502
rthumb -9.13027 -18.4262
lclavicle -1.74931e-014 0
lhumerus -18.6678 -5.47797 57.597
lradius 108.705
lwrist 5.2406
lhand -26.7108 19.4646
lfingers 7.12502
lthumb -0.140796 49.4443
rfemur -5.69121 6.84745 8.46857
rtibia 33.7956
rfoot -13.7323 -3.39494
rtoes 4.05236
lfemur -9.11587 -2.51249 -11.1996
ltibia 24.1247
lfoot -11.1463 5.52691
ltoes -27.5989
627
root 0.260085 17.7022 2.94994 6.59824 -74.8471 -5.03359
lowerback 4.64717 -1.02376 -4.1973
upperback -2.364 -1.75369 -1.63399
thorax -4.98976 -0.768604 0.81401
lowerneck -22.6356 -7.43578 -12.3262
upperneck -16.7965 -7.4768 12.748
head -0.646149 -3.47802 5.56342
rclavicle -1.68222e-014 -2.38542e-014
rhumerus -22.6509 -9.21571 -37.1113
rradius 116.782
rwrist 7.13305
rhand -34.9304 11.1891
rfingers 7.12502
rthumb -8.07756 -18.6365
lclavicle -1.68222e-014 -2.38542e-014
lhumerus -21.0028 -4.74837 59.8107
lradius 106.876
lwrist 4.43462
lhand -27.3572 20.2252
lfingers 7.12502
lthumb -0.765088 50.2035
rfemur -6.17989 6.7292 8.27189
rtibia 34.0388
rfoot -13.3231 -3.82369
rtoes 3.29151
lfemur -9.11747 -2.56605 -11.4122
ltibia 23.8076
lfoot -11.2223 5.69909
ltoes -23.4711
628
root 0.266754 17.7161 3.00075 6.98727 -75.0834 -5.36113
lowerback 4.74052 -1.07876 -4.41676
upperback -2.38199 -1.83977 -1.48413
thorax -5.04712 -0.799151 1.1015
lowerneck -22.6325 -7.35508 -12.3694
upperneck -17.0022 -7.3627 12.927
head -0.708012 -3.4273 5.64494
rclavicle 5.47155e-014 7.15625e-015
rhumerus -25.2283 -8.60175 -39.946
rradius 114.886
rwrist 6.22867
rhand -33.4857 10.6098
rfingers 7.12502
rthumb -6.68309 -19.2647
lclavicle 5.47155e-014 7.15625e-015
lhumerus -23.3941 -3.49775 61.4996
lradius 105.027
lwrist 3.93146
lhand -27.7711 20.8187
lfingers 7.12502
lthumb -1.16489 50.7953
rfemur -6.5231 6.73693 8.19319
rtibia 34.2919
rfoot -13.0687 -4.18114
rtoes 3.56358
lfemur -8.93143 -2.55107 -11.5316
ltibia 23.4815
lfoot -11.2938 5.79635
ltoes -20.8623
629
root 0.275035 17.7257 3.04806 7.28258 -75.3626 -5.6035
lowerback 4.75787 -1.2094 -4.54027
upperback -2.33045 -2.02283 -1.50406
thorax -4.99089 -0.887954 1.16537
lowerneck -22.8791 -7.14482 -11.9724
upperneck -17.0444 -7.16469 13.0014
head -0.717509 -3.35345 5.61865
rclavicle 3.60049e-014 2.54444e-014
rhumerus -27.5456 -8.08961 -43.1017
rradius 112.733
rwrist 5.23099
rhand -32.6474 9.02737
rfingers 7.12502
rthumb -5.87384 -20.8712
lclavicle 3.60049e-014 2.54444e-014
lhumerus -25.634 -2.16457 62.5382
lradius 103.161
lwrist 3.38007
lhand -28.2914 21.3885
lfingers 7.12502
lthumb -1.66736 51.3617
rfemur -6.85531 6.70883 8.10061
rtibia 34.5193
rfoot -12.8228 -4.54548
rtoes 4.16423
lfemur -8.80097 -2.3733 -11.6666
ltibia 23.2837
lfoot -11.3107 5.77002
ltoes -20.5454
630
root 0.287176 17.7353 3.09214 7.59452 -75.6561 -5.80296
lowerback 4.68526 -1.29543 -4.60604
upperback -2.25279 -2.13946 -1.59098
thorax -4.86345 -0.949328 1.11892
lowerneck -23.1119 -7.01248 -11.616
upperneck -17.1394 -7.05942 13.1403
head -0.728883 -3.32461 5.61296
rclavicle -3.14577e-014 1.43125e-014
rhumerus -29.6645 -8.07663 -46.1157
rradius 110.111
rwrist 4.61373
rhand -31.8118 7.66267
rfingers 7.12502
rthumb -5.06704 -22.2567
lclavicle -3.14577e-014 1.43125e-014
lhumerus -27.5586 -0.88491 63.4064
lradius 101.212
lwrist 2.81455
lhand -28.6755 21.9141
lfingers 7.12502
lthumb -2.03835 51.8841
rfemur -7.2418 6.77162 8.02477
rtibia 34.717
rfoot -12.7465 -4.99753
rtoes 5.1872
lfemur -8.82979 -1.99654 -11.8148
ltibia 23.207
lfoot -11.1911 5.73511
ltoes -23.415
631
root 0.3047 17.7429 3.13522 8.12602 -75.8911 -6.16529
lowerback 4.5545 -1.22187 -4.6317
upperback -2.16247 -2.02968 -1.57872
thorax -4.69888 -0.898495 1.13212
lowerneck -23.015 -7.09425 -11.6577
upperneck -17.573 -7.16599 13.268
head -0.852262 -3.39098 5.66692
rclavicle 2.27236e-014 3.4191e-014
rhumerus -31.6337 -8.59326 -48.379
rradius 106.942
rwrist 4.49397
rhand -31.0768 7.73367
rfingers 7.12502
rthumb -4.35729 -22.2015
lclavicle 2.27236e-014 3.4191e-014
lhumerus -29.0493 0.277798 64.5517
lradius 99.1408
lwrist 2.38217
lhand -28.558 21.9131
lfingers 7.12502
lthumb -1.9248 51.8842
rfemur -7.67327 6.66283 7.99833
rtibia 34.8612
rfoot -12.6245 -5.41989
rtoes 6.01528
lfemur -9.03161 -1.7241 -11.9197
ltibia 23.2605
lfoot -11.0509 5.74662
ltoes -27.6262
632
root 0.319906 17.7497 3.18258 10.2167 -76.1182 -8.1017
lowerback 4.38759 -1.0759 -4.26143
upperback -2.21847 -1.80096 -1.54716
thorax -4.68293 -0.795598 0.936281
lowerneck -22.5204 -7.11671 -11.4421
upperneck -18.0243 -7.27465 13.3491
head -1.03904 -3.47905 5.67114
rclavicle -8.70925e-015 -2.70347e-014
rhumerus -33.7137 -9.07794 -50.3096
rradius 103.451
rwrist 4.67348
rhand -30.9592 8.36724
rfingers 7.12502
rthumb -4.24373 -21.5702
lclavicle -8.70925e-015 -2.70347e-014
lhumerus -30.5179 1.04354 65.4494
lradius 97.0233
lwrist 2.07295
lhand -28.4494 22.3117
lfingers 7.12502
lthumb -1.81991 52.2837
rfemur -8.09283 6.40662 8.37588
rtibia 34.8563
rfoot -12.3862 -5.95684
rtoes 6.30884
lfemur -9.30362 -1.85679 -11.6011
ltibia 23.491
lfoot -11.0995 6.12044
ltoes -29.1924
633
root 0.326066 17.7585 3.22144 13.337 -76.1792 -11.0984
lowerback 4.13301 -1.0477 -3.72955
upperback -2.23091 -1.70468 -1.35515
thorax -4.56256 -0.761917 0.824662
lowerneck -22.3168 -7.15406 -11.4535
upperneck -18.2352 -7.32637 13.5549
head -1.10741 -3.5158 5.74491
rclavicle -1.758e-014 -7.95139e-015
rhumerus -35.3648 -9.43713 -52.0762
rradius 99.6795
rwrist 4.85692
rhand -31.4035 9.05312
rfingers 7.12502
rthumb -4.67273 -20.8753
lclavicle -1.758e-014 -7.95139e-015
lhumerus -32.0605 1.96224 66.2243
lradius 95.0218
lwrist 1.73927
lhand -28.2545 23.0577
lfingers 7.12502
lthumb -1.63175 53.0313
rfemur -8.36695 6.26161 9.15918
rtibia 34.7553
rfoot -12.2919 -6.64758
rtoes 6.29129
lfemur -9.60365 -1.89355 -10.9224
ltibia 23.8489
lfoot -11.3285 6.28863
ltoes -28.5953
634
root 0.317859 17.7665 3.26021 16.6494 -76.1972 -14.4474
lowerback 3.87197 -1.07236 -3.13978
upperback -2.17014 -1.67113 -1.05986
thorax -4.35771 -0.760276 0.791103
lowerneck -22.3096 -7.14817 -11.6119
upperneck -18.3261 -7.27559 13.7975
head -1.11929 -3.4872 5.85642
rclavicle -3.89121e-014 2.22639e-014
rhumerus -36.6415 -9.7161 -53.7357
rradius 95.735
rwrist 5.0163
rhand -31.8138 9.21783
rfingers 7.12502
rthumb -5.06898 -20.7015
lclavicle -3.89121e-014 2.22639e-014
lhumerus -33.6013 3.12255 66.8622
lradius 93.0348
lwrist 1.32213
lhand -27.6335 23.2412
lfingers 7.12502
lthumb -1.03195 53.2185
rfemur -8.41106 6.29663 10.0606
rtibia 34.6316
rfoot -12.3854 -7.31908
rtoes 6.82465
lfemur -9.69995 -1.79186 -10.1967
ltibia 24.1879
lfoot -11.5957 6.3914
ltoes -28.3627
635
root 0.321115 17.7737 3.29449 18.8061 -76.2749 -16.5992
lowerback 3.82024 -1.1339 -2.90452
upperback -2.15577 -1.72265 -0.775651
thorax -4.30874 -0.787928 0.955271
lowerneck -22.4674 -7.17941 -11.9259
upperneck -18.2984 -7.22504 14.1361
head -1.06304 -3.44412 6.01762
rclavicle 2.61029e-014 7.95139e-015
rhumerus -37.5183 -9.91129 -55.262
rradius 91.5967
rwrist 5.04576
rhand -32.0139 9.29952
rfingers 7.12502
rthumb -5.26213 -20.6151
lclavicle 2.61029e-014 7.95139e-015
lhumerus -35.0888 4.40866 67.4031
lradius 90.9529
lwrist 0.485475
lhand -27.2333 22.9255
lfingers 7.12502
lthumb -0.64539 52.9043
rfemur -8.53834 6.29414 10.5903
rtibia 34.5527
rfoot -12.5308 -7.774
rtoes 8.5826
lfemur -9.85134 -1.53853 -9.80901
ltibia 24.4812
lfoot -11.7454 6.36478
ltoes -28.3417
636
root 0.332607 17.7794 3.32331 19.3774 -76.5012 -17.1261
lowerback 3.8549 -1.14918 -3.08788
upperback -2.18345 -1.75304 -0.712824
thorax -4.3492 -0.795789 1.12604
lowerneck -22.1684 -7.08172 -11.8594
upperneck -18.687 -7.12814 14.3312
head -1.21758 -3.42217 6.09722
rclavicle 4.86525e-014 7.95139e-015
rhumerus -38.1453 -10.2351 -56.7458
rradius 87.0585
rwrist 5.24299
rhand -32.0121 9.42017
rfingers 7.12502
rthumb -5.26046 -20.4945
lclavicle 4.86525e-014 7.95139e-015
lhumerus -36.5631 5.46127 67.7616
lradius 88.9353
lwrist -0.636541
lhand -27.3652 22.4254
lfingers 7.12502
lthumb -0.772828 52.4037
rfemur -8.75775 6.09479 10.6611
rtibia 34.5393
rfoot -12.4709 -8.28063
rtoes 8.71081
lfemur -10.0052 -1.34589 -9.90801
ltibia 24.71
lfoot -11.7121 6.58079
ltoes -29.1209
637
root 0.343131 17.7792 3.35004 20.2518 -76.693 -18.079
lowerback 4.04143 -1.17416 -3.22431
upperback -2.2026 -1.79974 -0.654751
thorax -4.46755 -0.81163 1.2707
lowerneck -22.0469 -6.90173 -11.4913
upperneck -18.9577 -6.98245 14.3734
head -1.33965 -3.38766 6.07429
rclavicle -3.03395e-014 -1.74931e-014
rhumerus -38.5199 -10.5136 -58.1385
rradius 82.3704
rwrist 5.28636
rhand -31.4117 9.25065
rfingers 7.12502
rthumb -4.68066 -20.6776
lclavicle -3.03395e-014 -1.74931e-014
lhumerus -38.0461 6.35221 67.9065
lradius 87.0257
lwrist -1.8846
lhand -27.7384 21.9392
lfingers 7.12502
lthumb -1.13325 51.9159
rfemur -8.85148 5.84768 10.8646
rtibia 34.597
rfoot -12.5527 -8.71111
rtoes 9.10813
lfemur -10.0002 -1.12907 -9.88275
ltibia 24.8871
lfoot -11.7025 6.78555
ltoes -30.0046
638
root 0.356463 17.7788 3.37896 20.4726 -76.8931 -18.5621
lowerback 4.54059 -1.26543 -3.52123
upperback -2.18501 -1.95448 -0.534124
thorax -4.71289 -0.872255 1.58675
lowerneck -22.1877 -6.72873 -11.2098
upperneck -19.0465 -6.81266 14.4396
head -1.37197 -3.32713 6.06421
rclavicle -2.50096e-014 4.77083e-015
rhumerus -38.6325 -10.4457 -59.3709
rradius 77.7802
rwrist 5.24994
rhand -30.4237 8.86781
rfingers 7.12502
rthumb -3.72663 -21.0794
lclavicle -2.50096e-014 4.77083e-015
lhumerus -39.5171 7.33478 68.0231
lradius 85.2712
lwrist -3.19861
lhand -28.2494 21.5483
lfingers 7.12502
lthumb -1.62682 51.5218
rfemur -8.72314 5.7304 10.9527
rtibia 34.6739
rfoot -12.7337 -9.1309
rtoes 9.57143
lfemur -9.72914 -1.40608 -9.97657
ltibia 25.021
lfoot -11.824 7.22639
ltoes -28.2375
